<svg width="306" height="96" viewBox="0 0 306 96" fill="none" xmlns="http://www.w3.org/2000/svg"><path fill-rule="evenodd" clip-rule="evenodd" d="M40.8 0h14.4c0 22.4928 18.3072 40.8 40.8 40.8v14.4c-22.4928 0-40.8 18.3072-40.8 40.8H40.8c0-22.4928-18.3072-40.8-40.8-40.8V40.8c22.4928 0 40.8-18.3072 40.8-40.8zM27.2064 48C35.8656 52.9344 43.0752 60.1344 48 68.7936 52.9344 60.1344 60.1344 52.9248 68.7936 48 60.1344 43.0656 52.9248 35.8656 48 27.2064 43.0656 35.8656 35.8656 43.0752 27.2064 48zM167.424 27.5136c-5.27-5.52-11.846-8.3136-19.747-8.3136H124.8v57.6h22.877c7.901 0 14.477-2.8032 19.747-8.3136 5.347-5.5104 7.978-12.3456 7.978-20.4864s-2.631-14.976-7.978-20.4864zm-7.574 33.4848c-3.12 3.2928-7.152 4.9344-12.173 4.9344h-11.52V30.0576h11.52c5.011 0 9.043 1.6512 12.173 5.0208 3.129 3.2928 4.694 7.5744 4.694 12.9216s-1.565 9.6288-4.694 12.9984zm53.415-25.3344h10.618v41.1456h-10.618V71.952c-3.206 4.032-7.651 6.0096-13.411 6.0096s-10.205-2.0544-14.15-6.2496c-3.869-4.1952-5.847-9.3792-5.847-15.4656 0-6.0864 1.978-11.1936 5.847-15.3888 3.945-4.1952 8.64-6.336 14.15-6.336 5.511 0 10.205 1.9776 13.411 6.0096V35.664zm-11.433 32.1696c3.293 0 6.009-1.0752 8.141-3.2064 2.217-2.2176 3.292-5.0208 3.292-8.3904 0-3.3696-1.065-6.1728-3.292-8.3136-2.141-2.2176-4.858-3.2928-8.141-3.2928-3.283 0-6.01 1.0656-8.151 3.2928-2.14 2.1408-3.206 4.9344-3.206 8.3136 0 3.3792 1.066 6.1728 3.206 8.3904 2.141 2.1408 4.858 3.2064 8.151 3.2064zm35.937-50.1983c-3.542 0-6.499 3.0432-6.499 6.5856s2.87 6.4992 6.499 6.4992c3.629 0 6.586-2.9568 6.586-6.4992s-3.043-6.5856-6.586-6.5856zm-5.261 18.0288v41.1456h10.618V35.6641h-10.618zM289.585 76.8h-12.336l-14.976-18.6816V76.8h-10.618V19.2h10.618v34.56l14.15-18.1056h12.672l-16.541 20.3232L289.585 76.8zm9.264-59.1647c-3.542 0-6.499 3.0432-6.499 6.5856s2.87 6.4992 6.499 6.4992c3.629 0 6.586-2.9568 6.586-6.4992s-3.043-6.5856-6.586-6.5856zm-5.261 18.0288v41.1456h10.618V35.6641h-10.618z" fill="#004ACE"/></svg>